<svg xmlns="http://www.w3.org/2000/svg" xmlns:xlink="http://www.w3.org/1999/xlink" width="1000" zoomAndPan="magnify" viewBox="0 0 750 749.999995" height="1000" preserveAspectRatio="xMidYMid meet" version="1.2"><defs><clipPath id="b6ae0b76a7"><path d="M 123 45.453125 L 627 45.453125 L 627 704.703125 L 123 704.703125 Z M 123 45.453125 "/></clipPath><clipPath id="d28b2e2917"><path d="M 312.3125 292.394531 L 444.3125 292.394531 L 444.3125 457.394531 L 312.3125 457.394531 Z M 312.3125 292.394531 "/></clipPath></defs><g id="820a998cfc"><path style=" stroke:none;fill-rule:nonzero;fill:#005eb8;fill-opacity:1;" d="M 355.710938 168.230469 L 308.039062 168.230469 C 303.871094 168.230469 300.472656 164.832031 300.472656 160.664062 C 300.472656 156.472656 303.871094 153.074219 308.039062 153.074219 L 355.710938 153.074219 C 359.90625 153.074219 363.277344 156.472656 363.277344 160.664062 C 363.277344 164.832031 359.90625 168.230469 355.710938 168.230469 "/><path style=" stroke:none;fill-rule:nonzero;fill:#005eb8;fill-opacity:1;" d="M 355.710938 213.125 L 308.039062 213.125 C 303.871094 213.125 300.472656 209.730469 300.472656 205.535156 C 300.472656 201.367188 303.871094 197.972656 308.039062 197.972656 L 355.710938 197.972656 C 359.90625 197.972656 363.277344 201.367188 363.277344 205.535156 C 363.277344 209.730469 359.90625 213.125 355.710938 213.125 "/><g clip-rule="nonzero" clip-path="url(#b6ae0b76a7)"><path style=" stroke:none;fill-rule:nonzero;fill:#005eb8;fill-opacity:1;" d="M 312.28125 109.492188 C 314.289062 110.828125 315.628906 113.144531 315.628906 115.769531 L 315.628906 274.847656 C 315.628906 276.109375 315.292969 277.34375 314.703125 278.449219 L 146.976562 587.375 C 135.269531 608.882812 135.785156 634.300781 148.289062 655.347656 C 160.820312 676.394531 182.917969 688.949219 207.414062 688.949219 L 542.246094 688.949219 C 566.738281 688.949219 588.839844 676.394531 601.367188 655.347656 C 613.871094 634.300781 614.386719 608.882812 602.707031 587.375 L 434.957031 278.449219 C 434.363281 277.34375 434.03125 276.109375 434.03125 274.847656 L 434.03125 115.769531 C 434.03125 111.574219 437.425781 108.179688 441.621094 108.179688 C 458.007812 108.179688 463.824219 93.953125 463.824219 81.757812 L 463.824219 60.582031 L 285.832031 60.582031 L 285.832031 81.757812 C 285.832031 96.320312 297.695312 108.179688 312.28125 108.179688 Z M 542.246094 704.105469 L 207.414062 704.105469 C 177.515625 704.105469 150.554688 688.769531 135.269531 663.09375 C 120.011719 637.414062 119.394531 606.414062 133.675781 580.144531 L 300.472656 272.917969 L 300.472656 121.636719 C 283.285156 116.515625 270.707031 100.589844 270.707031 81.757812 L 270.707031 53.019531 C 270.707031 48.851562 274.101562 45.453125 278.269531 45.453125 L 471.386719 45.453125 C 475.554688 45.453125 478.953125 48.851562 478.953125 53.019531 L 478.953125 81.757812 C 478.953125 103.316406 467.039062 119.140625 449.183594 122.613281 L 449.183594 272.917969 L 616.007812 580.144531 C 630.261719 606.414062 629.644531 637.414062 614.359375 663.09375 C 599.078125 688.769531 572.140625 704.105469 542.246094 704.105469 "/></g><path style=" stroke:none;fill-rule:nonzero;fill:#005eb8;fill-opacity:1;" d="M 374.828125 123.332031 L 308.039062 123.332031 L 308.039062 108.179688 L 374.828125 108.179688 L 374.828125 123.332031 "/><path style=" stroke:none;fill-rule:nonzero;fill:#005eb8;fill-opacity:1;" d="M 278.988281 475.195312 C 265.429688 472.339844 251.847656 469.460938 238.234375 466.886719 L 166.917969 598.207031 C 158.964844 612.84375 159.300781 629.441406 167.816406 643.746094 C 176.308594 658.050781 190.742188 666.257812 207.414062 666.257812 L 542.246094 666.257812 C 558.890625 666.257812 573.324219 658.050781 581.839844 643.746094 C 590.355469 629.441406 590.691406 612.84375 582.742188 598.207031 L 508.488281 461.484375 C 475.402344 476.945312 440.152344 487.390625 403.824219 489.628906 C 361.863281 492.203125 320.105469 483.894531 278.988281 475.195312 "/><g clip-rule="nonzero" clip-path="url(#d28b2e2917)"><path style=" stroke:none;fill-rule:nonzero;fill:#005eb8;fill-opacity:1;" d="M 438.808594 325.761719 L 438.808594 318.40625 C 438.808594 314.417969 436.46875 311.003906 433.167969 309.59375 C 433.199219 309.355469 433.308594 309.144531 433.308594 308.894531 L 433.308594 297.894531 C 433.308594 294.855469 430.847656 292.394531 427.808594 292.394531 L 317.8125 292.394531 C 314.773438 292.394531 312.3125 294.855469 312.3125 297.894531 L 312.3125 451.890625 C 312.3125 454.929688 314.773438 457.390625 317.8125 457.390625 L 427.808594 457.390625 C 430.847656 457.390625 433.308594 454.929688 433.308594 451.890625 L 433.308594 442.921875 L 442.992188 431.578125 C 443.839844 430.578125 444.308594 429.316406 444.308594 428.007812 L 444.308594 331.261719 C 444.308594 328.21875 441.84375 325.761719 438.808594 325.761719 Z M 422.308594 446.390625 L 323.3125 446.390625 L 323.3125 303.394531 L 422.308594 303.394531 L 422.308594 308.894531 C 422.308594 309.140625 422.417969 309.347656 422.449219 309.582031 C 419.132812 310.988281 416.78125 314.40625 416.78125 318.40625 L 416.78125 325.394531 L 408.558594 325.394531 C 400.976562 325.394531 394.808594 331.5625 394.808594 339.144531 L 394.808594 375.050781 C 394.808594 382.128906 405.808594 382.140625 405.808594 375.050781 L 405.808594 339.144531 C 405.808594 337.628906 407.042969 336.394531 408.558594 336.394531 L 411.308594 336.394531 L 411.308594 428.007812 C 411.308594 429.316406 411.777344 430.578125 412.625 431.578125 L 422.308594 442.921875 Z M 427.808594 432.421875 L 422.855469 426.613281 C 425.1875 425.148438 428.816406 423.96875 432.796875 426.578125 Z M 433.308594 414.78125 C 429.464844 413.683594 425.6875 413.910156 422.308594 414.9375 L 422.308594 336.394531 L 433.308594 336.394531 Z M 339.8125 325.394531 L 378.308594 325.394531 C 385.398438 325.394531 385.386719 336.394531 378.308594 336.394531 L 339.8125 336.394531 C 332.722656 336.394531 332.734375 325.394531 339.8125 325.394531 Z M 339.8125 352.894531 L 378.308594 352.894531 C 385.398438 352.894531 385.386719 363.894531 378.308594 363.894531 L 339.8125 363.894531 C 332.722656 363.894531 332.734375 352.894531 339.8125 352.894531 Z M 339.8125 385.894531 L 378.308594 385.894531 C 385.398438 385.894531 385.386719 396.894531 378.308594 396.894531 L 339.8125 396.894531 C 332.722656 396.894531 332.734375 385.894531 339.8125 385.894531 Z M 394.808594 424.390625 L 339.8125 424.390625 C 332.722656 424.390625 332.734375 413.390625 339.8125 413.390625 L 394.808594 413.390625 C 401.898438 413.390625 401.886719 424.390625 394.808594 424.390625 Z M 394.808594 424.390625 "/></g><g style="fill:#ffffff;fill-opacity:1;"><g transform="translate(298.645201, 566.641744)"><path style="stroke:none" d="M 7.046875 -58.71875 L 51.515625 -58.71875 C 53.222656 -58.71875 54.476562 -58.515625 55.28125 -58.109375 C 56.082031 -57.710938 56.613281 -57.085938 56.875 -56.234375 C 57.144531 -55.378906 57.28125 -54.257812 57.28125 -52.875 C 57.28125 -51.488281 57.144531 -50.378906 56.875 -49.546875 C 56.613281 -48.722656 56.160156 -48.15625 55.515625 -47.84375 C 54.554688 -47.363281 53.195312 -47.125 51.4375 -47.125 L 36.15625 -47.125 L 36.15625 -6.875 C 36.15625 -5.65625 36.113281 -4.75 36.03125 -4.15625 C 35.957031 -3.570312 35.71875 -2.890625 35.3125 -2.109375 C 34.914062 -1.335938 34.210938 -0.789062 33.203125 -0.46875 C 32.191406 -0.15625 30.859375 0 29.203125 0 C 27.546875 0 26.222656 -0.15625 25.234375 -0.46875 C 24.253906 -0.789062 23.5625 -1.335938 23.15625 -2.109375 C 22.757812 -2.890625 22.519531 -3.585938 22.4375 -4.203125 C 22.351562 -4.816406 22.3125 -5.734375 22.3125 -6.953125 L 22.3125 -47.125 L 6.953125 -47.125 C 5.253906 -47.125 4.003906 -47.320312 3.203125 -47.71875 C 2.398438 -48.113281 1.863281 -48.738281 1.59375 -49.59375 C 1.332031 -50.445312 1.203125 -51.566406 1.203125 -52.953125 C 1.203125 -54.347656 1.332031 -55.457031 1.59375 -56.28125 C 1.863281 -57.101562 2.316406 -57.675781 2.953125 -58 C 3.921875 -58.476562 5.285156 -58.71875 7.046875 -58.71875 Z M 7.046875 -58.71875 "/></g></g><g style="fill:#ffffff;fill-opacity:1;"><g transform="translate(357.119518, 566.641744)"><path style="stroke:none" d="M 26.5625 -42 C 31.894531 -42 36.332031 -39.972656 39.875 -35.921875 C 43.425781 -31.867188 45.203125 -26.910156 45.203125 -21.046875 L 45.203125 -6.953125 C 45.203125 -5.734375 45.160156 -4.816406 45.078125 -4.203125 C 44.992188 -3.585938 44.738281 -2.878906 44.3125 -2.078125 C 43.625 -0.691406 41.570312 0 38.15625 0 C 34.90625 0 32.878906 -0.691406 32.078125 -2.078125 C 31.648438 -2.878906 31.394531 -3.597656 31.3125 -4.234375 C 31.238281 -4.878906 31.203125 -5.84375 31.203125 -7.125 L 31.203125 -21.125 C 31.203125 -23.3125 30.585938 -25.015625 29.359375 -26.234375 C 28.128906 -27.460938 26.566406 -28.078125 24.671875 -28.078125 C 22.785156 -28.078125 21.117188 -27.503906 19.671875 -26.359375 C 18.234375 -25.210938 17.410156 -23.921875 17.203125 -22.484375 L 17.203125 -6.953125 C 17.203125 -5.734375 17.160156 -4.816406 17.078125 -4.203125 C 16.992188 -3.585938 16.738281 -2.878906 16.3125 -2.078125 C 15.625 -0.691406 13.570312 0 10.15625 0 C 6.800781 0 4.75 -0.71875 4 -2.15625 C 3.625 -2.957031 3.394531 -3.648438 3.3125 -4.234375 C 3.238281 -4.828125 3.203125 -5.765625 3.203125 -7.046875 L 3.203125 -54.875 C 3.203125 -56.101562 3.238281 -57.023438 3.3125 -57.640625 C 3.394531 -58.253906 3.625 -58.9375 4 -59.6875 C 4.75 -61.125 6.828125 -61.84375 10.234375 -61.84375 C 13.597656 -61.84375 15.625 -61.125 16.3125 -59.6875 C 16.738281 -58.882812 16.992188 -58.175781 17.078125 -57.5625 C 17.160156 -56.945312 17.203125 -56.023438 17.203125 -54.796875 L 17.203125 -37.125 C 19.867188 -40.375 22.988281 -42 26.5625 -42 Z M 26.5625 -42 "/></g></g><g style="fill:#ffffff;fill-opacity:1;"><g transform="translate(405.514817, 566.641744)"><path style="stroke:none" d="M 43.84375 -26.125 C 43.84375 -22.84375 43.023438 -20.414062 41.390625 -18.84375 C 39.765625 -17.269531 37.96875 -16.484375 36 -16.484375 L 17.046875 -16.484375 C 17.046875 -14.984375 17.921875 -13.726562 19.671875 -12.71875 C 21.429688 -11.707031 23.191406 -11.203125 24.953125 -11.203125 C 28.046875 -11.203125 30.472656 -11.519531 32.234375 -12.15625 L 33.125 -12.484375 C 34.40625 -13.066406 35.46875 -13.359375 36.3125 -13.359375 C 38.019531 -13.359375 39.488281 -12.160156 40.71875 -9.765625 C 41.414062 -8.316406 41.765625 -7.085938 41.765625 -6.078125 C 41.765625 -1.328125 36.082031 1.046875 24.71875 1.046875 C 20.769531 1.046875 17.257812 0.363281 14.1875 -1 C 11.125 -2.363281 8.742188 -4.164062 7.046875 -6.40625 C 3.679688 -10.71875 2 -15.539062 2 -20.875 C 2 -27.59375 4.171875 -32.96875 8.515625 -37 C 12.867188 -41.03125 18.296875 -43.046875 24.796875 -43.046875 C 32.210938 -43.046875 37.65625 -40.429688 41.125 -35.203125 C 42.9375 -32.429688 43.84375 -29.40625 43.84375 -26.125 Z M 26.953125 -23.765625 C 28.984375 -23.765625 30 -24.613281 30 -26.3125 C 30 -27.539062 29.53125 -28.53125 28.59375 -29.28125 C 27.664062 -30.03125 26.332031 -30.40625 24.59375 -30.40625 C 22.863281 -30.40625 21.144531 -29.695312 19.4375 -28.28125 C 17.726562 -26.863281 16.875 -25.359375 16.875 -23.765625 Z M 26.953125 -23.765625 "/></g></g><g style="fill:#ffffff;fill-opacity:1;"><g transform="translate(187.809265, 646.141741)"><path style="stroke:none" d="M 17.359375 -14.15625 L 42 -14.15625 C 43.226562 -14.15625 44.148438 -14.113281 44.765625 -14.03125 C 45.378906 -13.957031 46.082031 -13.707031 46.875 -13.28125 C 48.320312 -12.53125 49.046875 -10.453125 49.046875 -7.046875 C 49.046875 -3.304688 48.054688 -1.117188 46.078125 -0.484375 C 45.171875 -0.160156 43.785156 0 41.921875 0 L 10.234375 0 C 6.503906 0 4.320312 -1.015625 3.6875 -3.046875 C 3.363281 -3.890625 3.203125 -5.25 3.203125 -7.125 L 3.203125 -51.59375 C 3.203125 -54.320312 3.707031 -56.175781 4.71875 -57.15625 C 5.726562 -58.144531 7.648438 -58.640625 10.484375 -58.640625 L 42 -58.640625 C 43.226562 -58.640625 44.148438 -58.597656 44.765625 -58.515625 C 45.378906 -58.441406 46.082031 -58.191406 46.875 -57.765625 C 48.320312 -57.015625 49.046875 -54.929688 49.046875 -51.515625 C 49.046875 -47.785156 48.054688 -45.597656 46.078125 -44.953125 C 45.171875 -44.640625 43.785156 -44.484375 41.921875 -44.484375 L 17.359375 -44.484375 L 17.359375 -36.40625 L 33.203125 -36.40625 C 34.429688 -36.40625 35.347656 -36.363281 35.953125 -36.28125 C 36.566406 -36.195312 37.273438 -35.941406 38.078125 -35.515625 C 39.515625 -34.773438 40.234375 -32.695312 40.234375 -29.28125 C 40.234375 -25.550781 39.222656 -23.363281 37.203125 -22.71875 C 36.296875 -22.394531 34.910156 -22.234375 33.046875 -22.234375 L 17.359375 -22.234375 Z M 17.359375 -14.15625 "/></g></g><g style="fill:#ffffff;fill-opacity:1;"><g transform="translate(238.844304, 646.141741)"><path style="stroke:none" d="M 32.40625 -21.125 L 41.28125 -12.15625 C 43.195312 -10.238281 44.15625 -8.597656 44.15625 -7.234375 C 44.15625 -5.878906 43.195312 -4.253906 41.28125 -2.359375 C 39.363281 -0.460938 37.738281 0.484375 36.40625 0.484375 C 35.070312 0.484375 33.441406 -0.476562 31.515625 -2.40625 L 22.71875 -11.28125 L 13.84375 -2.40625 C 11.914062 -0.476562 10.300781 0.484375 9 0.484375 C 7.695312 0.484375 6.070312 -0.460938 4.125 -2.359375 C 2.175781 -4.253906 1.203125 -5.878906 1.203125 -7.234375 C 1.203125 -8.597656 2.160156 -10.238281 4.078125 -12.15625 L 12.953125 -21.125 L 4.078125 -30.078125 C 2.160156 -31.992188 1.203125 -33.632812 1.203125 -35 C 1.203125 -36.363281 2.175781 -38.003906 4.125 -39.921875 C 6.070312 -41.835938 7.695312 -42.796875 9 -42.796875 C 10.300781 -42.796875 11.914062 -41.835938 13.84375 -39.921875 L 22.71875 -30.953125 L 31.515625 -39.921875 C 33.441406 -41.835938 35.070312 -42.796875 36.40625 -42.796875 C 37.738281 -42.796875 39.363281 -41.835938 41.28125 -39.921875 C 43.195312 -38.003906 44.15625 -36.363281 44.15625 -35 C 44.15625 -33.632812 43.195312 -31.992188 41.28125 -30.078125 Z M 32.40625 -21.125 "/></g></g><g style="fill:#ffffff;fill-opacity:1;"><g transform="translate(284.199904, 646.141741)"><path style="stroke:none" d="M 30.5625 -37.6875 C 30.882812 -40.664062 32.988281 -42.15625 36.875 -42.15625 C 38.957031 -42.15625 40.503906 -41.992188 41.515625 -41.671875 C 42.535156 -41.359375 43.242188 -40.800781 43.640625 -40 C 44.035156 -39.195312 44.273438 -38.488281 44.359375 -37.875 C 44.441406 -37.257812 44.484375 -36.34375 44.484375 -35.125 L 44.484375 -7.125 C 44.484375 -5.894531 44.441406 -4.972656 44.359375 -4.359375 C 44.273438 -3.742188 44.050781 -3.035156 43.6875 -2.234375 C 42.9375 -0.847656 41.109375 -0.15625 38.203125 -0.15625 C 35.296875 -0.15625 33.347656 -0.515625 32.359375 -1.234375 C 31.367188 -1.953125 30.796875 -3.007812 30.640625 -4.40625 C 28.671875 -1.570312 25.378906 -0.15625 20.765625 -0.15625 C 16.148438 -0.15625 11.867188 -2.257812 7.921875 -6.46875 C 3.972656 -10.6875 2 -15.582031 2 -21.15625 C 2 -26.726562 3.984375 -31.609375 7.953125 -35.796875 C 11.929688 -39.984375 16.296875 -42.078125 21.046875 -42.078125 C 22.859375 -42.078125 24.507812 -41.753906 26 -41.109375 C 27.488281 -40.472656 28.523438 -39.875 29.109375 -39.3125 C 29.703125 -38.757812 30.1875 -38.21875 30.5625 -37.6875 Z M 16 -21.046875 C 16 -19.285156 16.691406 -17.695312 18.078125 -16.28125 C 19.460938 -14.863281 21.140625 -14.15625 23.109375 -14.15625 C 25.085938 -14.15625 26.726562 -14.875 28.03125 -16.3125 C 29.34375 -17.757812 30 -19.347656 30 -21.078125 C 30 -22.816406 29.367188 -24.429688 28.109375 -25.921875 C 26.859375 -27.410156 25.179688 -28.15625 23.078125 -28.15625 C 20.972656 -28.15625 19.265625 -27.410156 17.953125 -25.921875 C 16.648438 -24.429688 16 -22.804688 16 -21.046875 Z M 16 -21.046875 "/></g></g><g style="fill:#ffffff;fill-opacity:1;"><g transform="translate(331.875279, 646.141741)"><path style="stroke:none" d="M 16.953125 -36.5625 C 19.460938 -40.34375 22.476562 -42.234375 26 -42.234375 C 31.4375 -42.234375 35.488281 -39.914062 38.15625 -35.28125 C 38.75 -36.082031 39.457031 -36.921875 40.28125 -37.796875 C 41.101562 -38.679688 42.421875 -39.640625 44.234375 -40.671875 C 46.046875 -41.710938 47.914062 -42.234375 49.84375 -42.234375 C 54.101562 -42.234375 57.671875 -40.59375 60.546875 -37.3125 C 63.429688 -34.039062 64.875 -28.617188 64.875 -21.046875 L 64.875 -7.046875 C 64.875 -5.816406 64.832031 -4.894531 64.75 -4.28125 C 64.675781 -3.664062 64.425781 -2.957031 64 -2.15625 C 63.300781 -0.71875 61.25 0 57.84375 0 C 54.476562 0 52.425781 -0.742188 51.6875 -2.234375 C 51.3125 -3.035156 51.082031 -3.742188 51 -4.359375 C 50.914062 -4.972656 50.875 -5.894531 50.875 -7.125 L 50.875 -21.125 C 50.875 -25.757812 49.222656 -28.078125 45.921875 -28.078125 C 44.054688 -28.078125 42.789062 -27.460938 42.125 -26.234375 C 41.457031 -25.015625 41.125 -23.285156 41.125 -21.046875 L 41.125 -7.046875 C 41.125 -5.765625 41.082031 -4.828125 41 -4.234375 C 40.914062 -3.648438 40.660156 -2.957031 40.234375 -2.15625 C 39.492188 -0.71875 37.414062 0 34 0 C 30.632812 0 28.582031 -0.742188 27.84375 -2.234375 C 27.46875 -3.035156 27.238281 -3.742188 27.15625 -4.359375 C 27.082031 -4.972656 27.046875 -5.894531 27.046875 -7.125 L 27.046875 -21.125 C 27.046875 -25.757812 25.390625 -28.078125 22.078125 -28.078125 C 18.878906 -28.078125 17.28125 -25.757812 17.28125 -21.125 L 17.28125 -6.953125 C 17.28125 -5.734375 17.238281 -4.816406 17.15625 -4.203125 C 17.082031 -3.585938 16.832031 -2.878906 16.40625 -2.078125 C 15.601562 -0.691406 13.519531 0 10.15625 0 C 6.800781 0 4.75 -0.71875 4 -2.15625 C 3.625 -2.957031 3.394531 -3.648438 3.3125 -4.234375 C 3.238281 -4.828125 3.203125 -5.765625 3.203125 -7.046875 L 3.203125 -35.203125 C 3.203125 -36.429688 3.238281 -37.347656 3.3125 -37.953125 C 3.394531 -38.566406 3.648438 -39.25 4.078125 -40 C 4.878906 -41.4375 6.769531 -42.15625 9.75 -42.15625 C 12.738281 -42.15625 14.6875 -41.675781 15.59375 -40.71875 C 16.5 -39.757812 16.953125 -38.375 16.953125 -36.5625 Z M 16.953125 -36.5625 "/></g></g><g style="fill:#ffffff;fill-opacity:1;"><g transform="translate(399.948659, 646.141741)"><path style="stroke:none" d=""/></g></g><g style="fill:#ffffff;fill-opacity:1;"><g transform="translate(420.18671, 646.141741)"><path style="stroke:none" d="M 17.359375 -11.84375 L 39.125 -11.84375 C 40.882812 -11.84375 42.160156 -11.640625 42.953125 -11.234375 C 43.753906 -10.835938 44.285156 -10.210938 44.546875 -9.359375 C 44.816406 -8.503906 44.953125 -7.367188 44.953125 -5.953125 C 44.953125 -4.546875 44.816406 -3.414062 44.546875 -2.5625 C 44.285156 -1.707031 43.835938 -1.117188 43.203125 -0.796875 C 42.191406 -0.265625 40.804688 0 39.046875 0 L 10.234375 0 C 6.503906 0 4.320312 -1.015625 3.6875 -3.046875 C 3.363281 -3.890625 3.203125 -5.25 3.203125 -7.125 L 3.203125 -51.59375 C 3.203125 -52.820312 3.238281 -53.742188 3.3125 -54.359375 C 3.394531 -54.972656 3.648438 -55.679688 4.078125 -56.484375 C 4.828125 -57.921875 6.90625 -58.640625 10.3125 -58.640625 C 14.050781 -58.640625 16.265625 -57.65625 16.953125 -55.6875 C 17.222656 -54.769531 17.359375 -53.378906 17.359375 -51.515625 Z M 17.359375 -11.84375 "/></g></g><g style="fill:#ffffff;fill-opacity:1;"><g transform="translate(467.142137, 646.141741)"><path style="stroke:none" d="M 30.5625 -37.6875 C 30.882812 -40.664062 32.988281 -42.15625 36.875 -42.15625 C 38.957031 -42.15625 40.503906 -41.992188 41.515625 -41.671875 C 42.535156 -41.359375 43.242188 -40.800781 43.640625 -40 C 44.035156 -39.195312 44.273438 -38.488281 44.359375 -37.875 C 44.441406 -37.257812 44.484375 -36.34375 44.484375 -35.125 L 44.484375 -7.125 C 44.484375 -5.894531 44.441406 -4.972656 44.359375 -4.359375 C 44.273438 -3.742188 44.050781 -3.035156 43.6875 -2.234375 C 42.9375 -0.847656 41.109375 -0.15625 38.203125 -0.15625 C 35.296875 -0.15625 33.347656 -0.515625 32.359375 -1.234375 C 31.367188 -1.953125 30.796875 -3.007812 30.640625 -4.40625 C 28.671875 -1.570312 25.378906 -0.15625 20.765625 -0.15625 C 16.148438 -0.15625 11.867188 -2.257812 7.921875 -6.46875 C 3.972656 -10.6875 2 -15.582031 2 -21.15625 C 2 -26.726562 3.984375 -31.609375 7.953125 -35.796875 C 11.929688 -39.984375 16.296875 -42.078125 21.046875 -42.078125 C 22.859375 -42.078125 24.507812 -41.753906 26 -41.109375 C 27.488281 -40.472656 28.523438 -39.875 29.109375 -39.3125 C 29.703125 -38.757812 30.1875 -38.21875 30.5625 -37.6875 Z M 16 -21.046875 C 16 -19.285156 16.691406 -17.695312 18.078125 -16.28125 C 19.460938 -14.863281 21.140625 -14.15625 23.109375 -14.15625 C 25.085938 -14.15625 26.726562 -14.875 28.03125 -16.3125 C 29.34375 -17.757812 30 -19.347656 30 -21.078125 C 30 -22.816406 29.367188 -24.429688 28.109375 -25.921875 C 26.859375 -27.410156 25.179688 -28.15625 23.078125 -28.15625 C 20.972656 -28.15625 19.265625 -27.410156 17.953125 -25.921875 C 16.648438 -24.429688 16 -22.804688 16 -21.046875 Z M 16 -21.046875 "/></g></g><g style="fill:#ffffff;fill-opacity:1;"><g transform="translate(514.817535, 646.141741)"><path style="stroke:none" d="M 26.3125 -42.078125 C 31.0625 -42.078125 35.421875 -39.96875 39.390625 -35.75 C 43.367188 -31.539062 45.359375 -26.648438 45.359375 -21.078125 C 45.359375 -15.503906 43.382812 -10.625 39.4375 -6.4375 C 35.488281 -2.25 31.25 -0.15625 26.71875 -0.15625 C 22.1875 -0.15625 18.960938 -1.4375 17.046875 -4 C 16.617188 -1.382812 14.320312 -0.078125 10.15625 -0.078125 C 6.800781 -0.078125 4.75 -0.796875 4 -2.234375 C 3.625 -3.035156 3.394531 -3.742188 3.3125 -4.359375 C 3.238281 -4.972656 3.203125 -5.894531 3.203125 -7.125 L 3.203125 -54.875 C 3.203125 -56.101562 3.238281 -57.023438 3.3125 -57.640625 C 3.394531 -58.253906 3.625 -58.9375 4 -59.6875 C 4.75 -61.125 6.828125 -61.84375 10.234375 -61.84375 C 13.597656 -61.84375 15.625 -61.125 16.3125 -59.6875 C 16.738281 -58.882812 16.992188 -58.175781 17.078125 -57.5625 C 17.160156 -56.945312 17.203125 -56.023438 17.203125 -54.796875 L 17.203125 -38.15625 C 19.335938 -40.769531 22.375 -42.078125 26.3125 -42.078125 Z M 19.3125 -16.234375 C 20.625 -14.796875 22.265625 -14.078125 24.234375 -14.078125 C 26.210938 -14.078125 27.894531 -14.796875 29.28125 -16.234375 C 30.664062 -17.679688 31.359375 -19.285156 31.359375 -21.046875 C 31.359375 -22.804688 30.71875 -24.414062 29.4375 -25.875 C 28.15625 -27.34375 26.445312 -28.078125 24.3125 -28.078125 C 22.1875 -28.078125 20.492188 -27.328125 19.234375 -25.828125 C 17.984375 -24.335938 17.359375 -22.726562 17.359375 -21 C 17.359375 -19.269531 18.007812 -17.679688 19.3125 -16.234375 Z M 19.3125 -16.234375 "/></g></g></g></svg>