<svg xmlns="http://www.w3.org/2000/svg" xmlns:xlink="http://www.w3.org/1999/xlink" width="1000" zoomAndPan="magnify" viewBox="0 0 750 749.999995" height="1000" preserveAspectRatio="xMidYMid meet" version="1.0"><defs><g/><clipPath id="c7ba7bd57c"><path d="M 123 45.453125 L 627 45.453125 L 627 704.703125 L 123 704.703125 Z M 123 45.453125 " clip-rule="nonzero"/></clipPath><clipPath id="2e3bc0e529"><path d="M 312.3125 292.394531 L 444.3125 292.394531 L 444.3125 457.394531 L 312.3125 457.394531 Z M 312.3125 292.394531 " clip-rule="nonzero"/></clipPath></defs><rect x="-75" width="900" fill="#ffffff" y="-74.999999" height="899.999994" fill-opacity="1"/><rect x="-75" width="900" fill="#1e74c7" y="-74.999999" height="899.999994" fill-opacity="1"/><path fill="#ffffff" d="M 355.871094 168.3125 L 308.164062 168.3125 C 303.992188 168.3125 300.59375 164.914062 300.59375 160.742188 C 300.59375 156.546875 303.992188 153.148438 308.164062 153.148438 L 355.871094 153.148438 C 360.066406 153.148438 363.4375 156.546875 363.4375 160.742188 C 363.4375 164.914062 360.066406 168.3125 355.871094 168.3125 " fill-opacity="1" fill-rule="nonzero"/><path fill="#ffffff" d="M 355.871094 213.238281 L 308.164062 213.238281 C 303.992188 213.238281 300.59375 209.839844 300.59375 205.640625 C 300.59375 201.472656 303.992188 198.074219 308.164062 198.074219 L 355.871094 198.074219 C 360.066406 198.074219 363.4375 201.472656 363.4375 205.640625 C 363.4375 209.839844 360.066406 213.238281 355.871094 213.238281 " fill-opacity="1" fill-rule="nonzero"/><g clip-path="url(#c7ba7bd57c)"><path fill="#ffffff" d="M 312.410156 109.535156 C 314.417969 110.871094 315.757812 113.191406 315.757812 115.816406 L 315.757812 275 C 315.757812 276.261719 315.421875 277.5 314.832031 278.605469 L 146.996094 587.730469 C 135.28125 609.253906 135.796875 634.691406 148.308594 655.75 C 160.847656 676.8125 182.960938 689.375 207.472656 689.375 L 542.523438 689.375 C 567.035156 689.375 589.148438 676.8125 601.6875 655.75 C 614.199219 634.691406 614.714844 609.253906 603.027344 587.730469 L 435.164062 278.605469 C 434.574219 277.5 434.238281 276.261719 434.238281 275 L 434.238281 115.816406 C 434.238281 111.621094 437.636719 108.222656 441.835938 108.222656 C 458.234375 108.222656 464.050781 93.984375 464.050781 81.78125 L 464.050781 60.59375 L 285.945312 60.59375 L 285.945312 81.78125 C 285.945312 96.351562 297.8125 108.222656 312.410156 108.222656 Z M 542.523438 704.539062 L 207.472656 704.539062 C 177.554688 704.539062 150.574219 689.195312 135.28125 663.5 C 120.015625 637.808594 119.398438 606.785156 133.6875 580.496094 L 300.59375 273.070312 L 300.59375 121.6875 C 283.394531 116.5625 270.804688 100.625 270.804688 81.78125 L 270.804688 53.023438 C 270.804688 48.851562 274.203125 45.453125 278.375 45.453125 L 471.621094 45.453125 C 475.792969 45.453125 479.191406 48.851562 479.191406 53.023438 L 479.191406 81.78125 C 479.191406 103.355469 467.269531 119.1875 449.402344 122.664062 L 449.402344 273.070312 L 616.335938 580.496094 C 630.601562 606.785156 629.984375 637.808594 614.691406 663.5 C 599.398438 689.195312 572.441406 704.539062 542.523438 704.539062 " fill-opacity="1" fill-rule="nonzero"/></g><path fill="#ffffff" d="M 375 123.386719 L 308.164062 123.386719 L 308.164062 108.222656 L 375 108.222656 L 375 123.386719 " fill-opacity="1" fill-rule="nonzero"/><path fill="#ffffff" d="M 279.097656 475.480469 C 265.527344 472.625 251.933594 469.738281 238.316406 467.164062 L 166.949219 598.570312 C 158.992188 613.21875 159.328125 629.824219 167.851562 644.140625 C 176.347656 658.453125 190.789062 666.667969 207.472656 666.667969 L 542.523438 666.667969 C 559.183594 666.667969 573.625 658.453125 582.148438 644.140625 C 590.667969 629.824219 591.003906 613.21875 583.046875 598.570312 L 508.746094 461.757812 C 475.636719 477.230469 440.367188 487.683594 404.015625 489.925781 C 362.023438 492.5 320.238281 484.183594 279.097656 475.480469 " fill-opacity="1" fill-rule="nonzero"/><g clip-path="url(#2e3bc0e529)"><path fill="#ffffff" d="M 438.96875 325.804688 L 438.96875 318.441406 C 438.96875 314.445312 436.625 311.027344 433.324219 309.613281 C 433.355469 309.375 433.464844 309.164062 433.464844 308.917969 L 433.464844 297.902344 C 433.464844 294.859375 430.996094 292.394531 427.957031 292.394531 L 317.820312 292.394531 C 314.777344 292.394531 312.3125 294.859375 312.3125 297.902344 L 312.3125 452.09375 C 312.3125 455.136719 314.777344 457.601562 317.820312 457.601562 L 427.957031 457.601562 C 430.996094 457.601562 433.464844 455.136719 433.464844 452.09375 L 433.464844 443.113281 L 443.160156 431.757812 C 444.007812 430.753906 444.476562 429.492188 444.476562 428.179688 L 444.476562 331.308594 C 444.476562 328.265625 442.011719 325.804688 438.96875 325.804688 Z M 422.449219 446.585938 L 323.328125 446.585938 L 323.328125 303.410156 L 422.449219 303.410156 L 422.449219 308.917969 C 422.449219 309.160156 422.558594 309.371094 422.589844 309.605469 C 419.269531 311.011719 416.914062 314.433594 416.914062 318.441406 L 416.914062 325.4375 L 408.683594 325.4375 C 401.089844 325.4375 394.914062 331.609375 394.914062 339.203125 L 394.914062 375.15625 C 394.914062 382.242188 405.929688 382.253906 405.929688 375.15625 L 405.929688 339.203125 C 405.929688 337.6875 407.164062 336.449219 408.683594 336.449219 L 411.4375 336.449219 L 411.4375 428.179688 C 411.4375 429.492188 411.902344 430.753906 412.753906 431.757812 L 422.449219 443.113281 Z M 427.957031 432.601562 L 422.996094 426.785156 C 425.332031 425.320312 428.964844 424.136719 432.949219 426.75 Z M 433.464844 414.9375 C 429.617188 413.835938 425.832031 414.066406 422.449219 415.09375 L 422.449219 336.449219 L 433.464844 336.449219 Z M 339.847656 325.4375 L 378.394531 325.4375 C 385.492188 325.4375 385.480469 336.449219 378.394531 336.449219 L 339.847656 336.449219 C 332.746094 336.449219 332.757812 325.4375 339.847656 325.4375 Z M 339.847656 352.972656 L 378.394531 352.972656 C 385.492188 352.972656 385.480469 363.984375 378.394531 363.984375 L 339.847656 363.984375 C 332.746094 363.984375 332.757812 352.972656 339.847656 352.972656 Z M 339.847656 386.011719 L 378.394531 386.011719 C 385.492188 386.011719 385.480469 397.027344 378.394531 397.027344 L 339.847656 397.027344 C 332.746094 397.027344 332.757812 386.011719 339.847656 386.011719 Z M 394.914062 424.558594 L 339.847656 424.558594 C 332.746094 424.558594 332.757812 413.546875 339.847656 413.546875 L 394.914062 413.546875 C 402.015625 413.546875 402.003906 424.558594 394.914062 424.558594 Z M 394.914062 424.558594 " fill-opacity="1" fill-rule="nonzero"/></g><g fill="#1e74c7" fill-opacity="1"><g transform="translate(298.645201, 566.641744)"><g><path d="M 7.046875 -58.71875 L 51.515625 -58.71875 C 53.222656 -58.71875 54.476562 -58.515625 55.28125 -58.109375 C 56.082031 -57.710938 56.613281 -57.085938 56.875 -56.234375 C 57.144531 -55.378906 57.28125 -54.257812 57.28125 -52.875 C 57.28125 -51.488281 57.144531 -50.378906 56.875 -49.546875 C 56.613281 -48.722656 56.160156 -48.15625 55.515625 -47.84375 C 54.554688 -47.363281 53.195312 -47.125 51.4375 -47.125 L 36.15625 -47.125 L 36.15625 -6.875 C 36.15625 -5.65625 36.113281 -4.75 36.03125 -4.15625 C 35.957031 -3.570312 35.71875 -2.890625 35.3125 -2.109375 C 34.914062 -1.335938 34.210938 -0.789062 33.203125 -0.46875 C 32.191406 -0.15625 30.859375 0 29.203125 0 C 27.546875 0 26.222656 -0.15625 25.234375 -0.46875 C 24.253906 -0.789062 23.5625 -1.335938 23.15625 -2.109375 C 22.757812 -2.890625 22.519531 -3.585938 22.4375 -4.203125 C 22.351562 -4.816406 22.3125 -5.734375 22.3125 -6.953125 L 22.3125 -47.125 L 6.953125 -47.125 C 5.253906 -47.125 4.003906 -47.320312 3.203125 -47.71875 C 2.398438 -48.113281 1.863281 -48.738281 1.59375 -49.59375 C 1.332031 -50.445312 1.203125 -51.566406 1.203125 -52.953125 C 1.203125 -54.347656 1.332031 -55.457031 1.59375 -56.28125 C 1.863281 -57.101562 2.316406 -57.675781 2.953125 -58 C 3.921875 -58.476562 5.285156 -58.71875 7.046875 -58.71875 Z M 7.046875 -58.71875 "/></g></g></g><g fill="#1e74c7" fill-opacity="1"><g transform="translate(357.119518, 566.641744)"><g><path d="M 26.5625 -42 C 31.894531 -42 36.332031 -39.972656 39.875 -35.921875 C 43.425781 -31.867188 45.203125 -26.910156 45.203125 -21.046875 L 45.203125 -6.953125 C 45.203125 -5.734375 45.160156 -4.816406 45.078125 -4.203125 C 44.992188 -3.585938 44.738281 -2.878906 44.3125 -2.078125 C 43.625 -0.691406 41.570312 0 38.15625 0 C 34.90625 0 32.878906 -0.691406 32.078125 -2.078125 C 31.648438 -2.878906 31.394531 -3.597656 31.3125 -4.234375 C 31.238281 -4.878906 31.203125 -5.84375 31.203125 -7.125 L 31.203125 -21.125 C 31.203125 -23.3125 30.585938 -25.015625 29.359375 -26.234375 C 28.128906 -27.460938 26.566406 -28.078125 24.671875 -28.078125 C 22.785156 -28.078125 21.117188 -27.503906 19.671875 -26.359375 C 18.234375 -25.210938 17.410156 -23.921875 17.203125 -22.484375 L 17.203125 -6.953125 C 17.203125 -5.734375 17.160156 -4.816406 17.078125 -4.203125 C 16.992188 -3.585938 16.738281 -2.878906 16.3125 -2.078125 C 15.625 -0.691406 13.570312 0 10.15625 0 C 6.800781 0 4.75 -0.71875 4 -2.15625 C 3.625 -2.957031 3.394531 -3.648438 3.3125 -4.234375 C 3.238281 -4.828125 3.203125 -5.765625 3.203125 -7.046875 L 3.203125 -54.875 C 3.203125 -56.101562 3.238281 -57.023438 3.3125 -57.640625 C 3.394531 -58.253906 3.625 -58.9375 4 -59.6875 C 4.75 -61.125 6.828125 -61.84375 10.234375 -61.84375 C 13.597656 -61.84375 15.625 -61.125 16.3125 -59.6875 C 16.738281 -58.882812 16.992188 -58.175781 17.078125 -57.5625 C 17.160156 -56.945312 17.203125 -56.023438 17.203125 -54.796875 L 17.203125 -37.125 C 19.867188 -40.375 22.988281 -42 26.5625 -42 Z M 26.5625 -42 "/></g></g></g><g fill="#1e74c7" fill-opacity="1"><g transform="translate(405.514817, 566.641744)"><g><path d="M 43.84375 -26.125 C 43.84375 -22.84375 43.023438 -20.414062 41.390625 -18.84375 C 39.765625 -17.269531 37.96875 -16.484375 36 -16.484375 L 17.046875 -16.484375 C 17.046875 -14.984375 17.921875 -13.726562 19.671875 -12.71875 C 21.429688 -11.707031 23.191406 -11.203125 24.953125 -11.203125 C 28.046875 -11.203125 30.472656 -11.519531 32.234375 -12.15625 L 33.125 -12.484375 C 34.40625 -13.066406 35.46875 -13.359375 36.3125 -13.359375 C 38.019531 -13.359375 39.488281 -12.160156 40.71875 -9.765625 C 41.414062 -8.316406 41.765625 -7.085938 41.765625 -6.078125 C 41.765625 -1.328125 36.082031 1.046875 24.71875 1.046875 C 20.769531 1.046875 17.257812 0.363281 14.1875 -1 C 11.125 -2.363281 8.742188 -4.164062 7.046875 -6.40625 C 3.679688 -10.71875 2 -15.539062 2 -20.875 C 2 -27.59375 4.171875 -32.96875 8.515625 -37 C 12.867188 -41.03125 18.296875 -43.046875 24.796875 -43.046875 C 32.210938 -43.046875 37.65625 -40.429688 41.125 -35.203125 C 42.9375 -32.429688 43.84375 -29.40625 43.84375 -26.125 Z M 26.953125 -23.765625 C 28.984375 -23.765625 30 -24.613281 30 -26.3125 C 30 -27.539062 29.53125 -28.53125 28.59375 -29.28125 C 27.664062 -30.03125 26.332031 -30.40625 24.59375 -30.40625 C 22.863281 -30.40625 21.144531 -29.695312 19.4375 -28.28125 C 17.726562 -26.863281 16.875 -25.359375 16.875 -23.765625 Z M 26.953125 -23.765625 "/></g></g></g><g fill="#1e74c7" fill-opacity="1"><g transform="translate(187.809265, 646.141741)"><g><path d="M 17.359375 -14.15625 L 42 -14.15625 C 43.226562 -14.15625 44.148438 -14.113281 44.765625 -14.03125 C 45.378906 -13.957031 46.082031 -13.707031 46.875 -13.28125 C 48.320312 -12.53125 49.046875 -10.453125 49.046875 -7.046875 C 49.046875 -3.304688 48.054688 -1.117188 46.078125 -0.484375 C 45.171875 -0.160156 43.785156 0 41.921875 0 L 10.234375 0 C 6.503906 0 4.320312 -1.015625 3.6875 -3.046875 C 3.363281 -3.890625 3.203125 -5.25 3.203125 -7.125 L 3.203125 -51.59375 C 3.203125 -54.320312 3.707031 -56.175781 4.71875 -57.15625 C 5.726562 -58.144531 7.648438 -58.640625 10.484375 -58.640625 L 42 -58.640625 C 43.226562 -58.640625 44.148438 -58.597656 44.765625 -58.515625 C 45.378906 -58.441406 46.082031 -58.191406 46.875 -57.765625 C 48.320312 -57.015625 49.046875 -54.929688 49.046875 -51.515625 C 49.046875 -47.785156 48.054688 -45.597656 46.078125 -44.953125 C 45.171875 -44.640625 43.785156 -44.484375 41.921875 -44.484375 L 17.359375 -44.484375 L 17.359375 -36.40625 L 33.203125 -36.40625 C 34.429688 -36.40625 35.347656 -36.363281 35.953125 -36.28125 C 36.566406 -36.195312 37.273438 -35.941406 38.078125 -35.515625 C 39.515625 -34.773438 40.234375 -32.695312 40.234375 -29.28125 C 40.234375 -25.550781 39.222656 -23.363281 37.203125 -22.71875 C 36.296875 -22.394531 34.910156 -22.234375 33.046875 -22.234375 L 17.359375 -22.234375 Z M 17.359375 -14.15625 "/></g></g></g><g fill="#1e74c7" fill-opacity="1"><g transform="translate(238.844304, 646.141741)"><g><path d="M 32.40625 -21.125 L 41.28125 -12.15625 C 43.195312 -10.238281 44.15625 -8.597656 44.15625 -7.234375 C 44.15625 -5.878906 43.195312 -4.253906 41.28125 -2.359375 C 39.363281 -0.460938 37.738281 0.484375 36.40625 0.484375 C 35.070312 0.484375 33.441406 -0.476562 31.515625 -2.40625 L 22.71875 -11.28125 L 13.84375 -2.40625 C 11.914062 -0.476562 10.300781 0.484375 9 0.484375 C 7.695312 0.484375 6.070312 -0.460938 4.125 -2.359375 C 2.175781 -4.253906 1.203125 -5.878906 1.203125 -7.234375 C 1.203125 -8.597656 2.160156 -10.238281 4.078125 -12.15625 L 12.953125 -21.125 L 4.078125 -30.078125 C 2.160156 -31.992188 1.203125 -33.632812 1.203125 -35 C 1.203125 -36.363281 2.175781 -38.003906 4.125 -39.921875 C 6.070312 -41.835938 7.695312 -42.796875 9 -42.796875 C 10.300781 -42.796875 11.914062 -41.835938 13.84375 -39.921875 L 22.71875 -30.953125 L 31.515625 -39.921875 C 33.441406 -41.835938 35.070312 -42.796875 36.40625 -42.796875 C 37.738281 -42.796875 39.363281 -41.835938 41.28125 -39.921875 C 43.195312 -38.003906 44.15625 -36.363281 44.15625 -35 C 44.15625 -33.632812 43.195312 -31.992188 41.28125 -30.078125 Z M 32.40625 -21.125 "/></g></g></g><g fill="#1e74c7" fill-opacity="1"><g transform="translate(284.199904, 646.141741)"><g><path d="M 30.5625 -37.6875 C 30.882812 -40.664062 32.988281 -42.15625 36.875 -42.15625 C 38.957031 -42.15625 40.503906 -41.992188 41.515625 -41.671875 C 42.535156 -41.359375 43.242188 -40.800781 43.640625 -40 C 44.035156 -39.195312 44.273438 -38.488281 44.359375 -37.875 C 44.441406 -37.257812 44.484375 -36.34375 44.484375 -35.125 L 44.484375 -7.125 C 44.484375 -5.894531 44.441406 -4.972656 44.359375 -4.359375 C 44.273438 -3.742188 44.050781 -3.035156 43.6875 -2.234375 C 42.9375 -0.847656 41.109375 -0.15625 38.203125 -0.15625 C 35.296875 -0.15625 33.347656 -0.515625 32.359375 -1.234375 C 31.367188 -1.953125 30.796875 -3.007812 30.640625 -4.40625 C 28.671875 -1.570312 25.378906 -0.15625 20.765625 -0.15625 C 16.148438 -0.15625 11.867188 -2.257812 7.921875 -6.46875 C 3.972656 -10.6875 2 -15.582031 2 -21.15625 C 2 -26.726562 3.984375 -31.609375 7.953125 -35.796875 C 11.929688 -39.984375 16.296875 -42.078125 21.046875 -42.078125 C 22.859375 -42.078125 24.507812 -41.753906 26 -41.109375 C 27.488281 -40.472656 28.523438 -39.875 29.109375 -39.3125 C 29.703125 -38.757812 30.1875 -38.21875 30.5625 -37.6875 Z M 16 -21.046875 C 16 -19.285156 16.691406 -17.695312 18.078125 -16.28125 C 19.460938 -14.863281 21.140625 -14.15625 23.109375 -14.15625 C 25.085938 -14.15625 26.726562 -14.875 28.03125 -16.3125 C 29.34375 -17.757812 30 -19.347656 30 -21.078125 C 30 -22.816406 29.367188 -24.429688 28.109375 -25.921875 C 26.859375 -27.410156 25.179688 -28.15625 23.078125 -28.15625 C 20.972656 -28.15625 19.265625 -27.410156 17.953125 -25.921875 C 16.648438 -24.429688 16 -22.804688 16 -21.046875 Z M 16 -21.046875 "/></g></g></g><g fill="#1e74c7" fill-opacity="1"><g transform="translate(331.875279, 646.141741)"><g><path d="M 16.953125 -36.5625 C 19.460938 -40.34375 22.476562 -42.234375 26 -42.234375 C 31.4375 -42.234375 35.488281 -39.914062 38.15625 -35.28125 C 38.75 -36.082031 39.457031 -36.921875 40.28125 -37.796875 C 41.101562 -38.679688 42.421875 -39.640625 44.234375 -40.671875 C 46.046875 -41.710938 47.914062 -42.234375 49.84375 -42.234375 C 54.101562 -42.234375 57.671875 -40.59375 60.546875 -37.3125 C 63.429688 -34.039062 64.875 -28.617188 64.875 -21.046875 L 64.875 -7.046875 C 64.875 -5.816406 64.832031 -4.894531 64.75 -4.28125 C 64.675781 -3.664062 64.425781 -2.957031 64 -2.15625 C 63.300781 -0.71875 61.25 0 57.84375 0 C 54.476562 0 52.425781 -0.742188 51.6875 -2.234375 C 51.3125 -3.035156 51.082031 -3.742188 51 -4.359375 C 50.914062 -4.972656 50.875 -5.894531 50.875 -7.125 L 50.875 -21.125 C 50.875 -25.757812 49.222656 -28.078125 45.921875 -28.078125 C 44.054688 -28.078125 42.789062 -27.460938 42.125 -26.234375 C 41.457031 -25.015625 41.125 -23.285156 41.125 -21.046875 L 41.125 -7.046875 C 41.125 -5.765625 41.082031 -4.828125 41 -4.234375 C 40.914062 -3.648438 40.660156 -2.957031 40.234375 -2.15625 C 39.492188 -0.71875 37.414062 0 34 0 C 30.632812 0 28.582031 -0.742188 27.84375 -2.234375 C 27.46875 -3.035156 27.238281 -3.742188 27.15625 -4.359375 C 27.082031 -4.972656 27.046875 -5.894531 27.046875 -7.125 L 27.046875 -21.125 C 27.046875 -25.757812 25.390625 -28.078125 22.078125 -28.078125 C 18.878906 -28.078125 17.28125 -25.757812 17.28125 -21.125 L 17.28125 -6.953125 C 17.28125 -5.734375 17.238281 -4.816406 17.15625 -4.203125 C 17.082031 -3.585938 16.832031 -2.878906 16.40625 -2.078125 C 15.601562 -0.691406 13.519531 0 10.15625 0 C 6.800781 0 4.75 -0.71875 4 -2.15625 C 3.625 -2.957031 3.394531 -3.648438 3.3125 -4.234375 C 3.238281 -4.828125 3.203125 -5.765625 3.203125 -7.046875 L 3.203125 -35.203125 C 3.203125 -36.429688 3.238281 -37.347656 3.3125 -37.953125 C 3.394531 -38.566406 3.648438 -39.25 4.078125 -40 C 4.878906 -41.4375 6.769531 -42.15625 9.75 -42.15625 C 12.738281 -42.15625 14.6875 -41.675781 15.59375 -40.71875 C 16.5 -39.757812 16.953125 -38.375 16.953125 -36.5625 Z M 16.953125 -36.5625 "/></g></g></g><g fill="#1e74c7" fill-opacity="1"><g transform="translate(399.948659, 646.141741)"><g/></g></g><g fill="#1e74c7" fill-opacity="1"><g transform="translate(420.18671, 646.141741)"><g><path d="M 17.359375 -11.84375 L 39.125 -11.84375 C 40.882812 -11.84375 42.160156 -11.640625 42.953125 -11.234375 C 43.753906 -10.835938 44.285156 -10.210938 44.546875 -9.359375 C 44.816406 -8.503906 44.953125 -7.367188 44.953125 -5.953125 C 44.953125 -4.546875 44.816406 -3.414062 44.546875 -2.5625 C 44.285156 -1.707031 43.835938 -1.117188 43.203125 -0.796875 C 42.191406 -0.265625 40.804688 0 39.046875 0 L 10.234375 0 C 6.503906 0 4.320312 -1.015625 3.6875 -3.046875 C 3.363281 -3.890625 3.203125 -5.25 3.203125 -7.125 L 3.203125 -51.59375 C 3.203125 -52.820312 3.238281 -53.742188 3.3125 -54.359375 C 3.394531 -54.972656 3.648438 -55.679688 4.078125 -56.484375 C 4.828125 -57.921875 6.90625 -58.640625 10.3125 -58.640625 C 14.050781 -58.640625 16.265625 -57.65625 16.953125 -55.6875 C 17.222656 -54.769531 17.359375 -53.378906 17.359375 -51.515625 Z M 17.359375 -11.84375 "/></g></g></g><g fill="#1e74c7" fill-opacity="1"><g transform="translate(467.142137, 646.141741)"><g><path d="M 30.5625 -37.6875 C 30.882812 -40.664062 32.988281 -42.15625 36.875 -42.15625 C 38.957031 -42.15625 40.503906 -41.992188 41.515625 -41.671875 C 42.535156 -41.359375 43.242188 -40.800781 43.640625 -40 C 44.035156 -39.195312 44.273438 -38.488281 44.359375 -37.875 C 44.441406 -37.257812 44.484375 -36.34375 44.484375 -35.125 L 44.484375 -7.125 C 44.484375 -5.894531 44.441406 -4.972656 44.359375 -4.359375 C 44.273438 -3.742188 44.050781 -3.035156 43.6875 -2.234375 C 42.9375 -0.847656 41.109375 -0.15625 38.203125 -0.15625 C 35.296875 -0.15625 33.347656 -0.515625 32.359375 -1.234375 C 31.367188 -1.953125 30.796875 -3.007812 30.640625 -4.40625 C 28.671875 -1.570312 25.378906 -0.15625 20.765625 -0.15625 C 16.148438 -0.15625 11.867188 -2.257812 7.921875 -6.46875 C 3.972656 -10.6875 2 -15.582031 2 -21.15625 C 2 -26.726562 3.984375 -31.609375 7.953125 -35.796875 C 11.929688 -39.984375 16.296875 -42.078125 21.046875 -42.078125 C 22.859375 -42.078125 24.507812 -41.753906 26 -41.109375 C 27.488281 -40.472656 28.523438 -39.875 29.109375 -39.3125 C 29.703125 -38.757812 30.1875 -38.21875 30.5625 -37.6875 Z M 16 -21.046875 C 16 -19.285156 16.691406 -17.695312 18.078125 -16.28125 C 19.460938 -14.863281 21.140625 -14.15625 23.109375 -14.15625 C 25.085938 -14.15625 26.726562 -14.875 28.03125 -16.3125 C 29.34375 -17.757812 30 -19.347656 30 -21.078125 C 30 -22.816406 29.367188 -24.429688 28.109375 -25.921875 C 26.859375 -27.410156 25.179688 -28.15625 23.078125 -28.15625 C 20.972656 -28.15625 19.265625 -27.410156 17.953125 -25.921875 C 16.648438 -24.429688 16 -22.804688 16 -21.046875 Z M 16 -21.046875 "/></g></g></g><g fill="#1e74c7" fill-opacity="1"><g transform="translate(514.817535, 646.141741)"><g><path d="M 26.3125 -42.078125 C 31.0625 -42.078125 35.421875 -39.96875 39.390625 -35.75 C 43.367188 -31.539062 45.359375 -26.648438 45.359375 -21.078125 C 45.359375 -15.503906 43.382812 -10.625 39.4375 -6.4375 C 35.488281 -2.25 31.25 -0.15625 26.71875 -0.15625 C 22.1875 -0.15625 18.960938 -1.4375 17.046875 -4 C 16.617188 -1.382812 14.320312 -0.078125 10.15625 -0.078125 C 6.800781 -0.078125 4.75 -0.796875 4 -2.234375 C 3.625 -3.035156 3.394531 -3.742188 3.3125 -4.359375 C 3.238281 -4.972656 3.203125 -5.894531 3.203125 -7.125 L 3.203125 -54.875 C 3.203125 -56.101562 3.238281 -57.023438 3.3125 -57.640625 C 3.394531 -58.253906 3.625 -58.9375 4 -59.6875 C 4.75 -61.125 6.828125 -61.84375 10.234375 -61.84375 C 13.597656 -61.84375 15.625 -61.125 16.3125 -59.6875 C 16.738281 -58.882812 16.992188 -58.175781 17.078125 -57.5625 C 17.160156 -56.945312 17.203125 -56.023438 17.203125 -54.796875 L 17.203125 -38.15625 C 19.335938 -40.769531 22.375 -42.078125 26.3125 -42.078125 Z M 19.3125 -16.234375 C 20.625 -14.796875 22.265625 -14.078125 24.234375 -14.078125 C 26.210938 -14.078125 27.894531 -14.796875 29.28125 -16.234375 C 30.664062 -17.679688 31.359375 -19.285156 31.359375 -21.046875 C 31.359375 -22.804688 30.71875 -24.414062 29.4375 -25.875 C 28.15625 -27.34375 26.445312 -28.078125 24.3125 -28.078125 C 22.1875 -28.078125 20.492188 -27.328125 19.234375 -25.828125 C 17.984375 -24.335938 17.359375 -22.726562 17.359375 -21 C 17.359375 -19.269531 18.007812 -17.679688 19.3125 -16.234375 Z M 19.3125 -16.234375 "/></g></g></g></svg>